<svg xmlns="http://www.w3.org/2000/svg" width="1440" height="900"><path d="M796,470L638,457L812,648Z" fill="#393939" stroke="#393939" stroke-width="1.51"/><path d="M638,457L586,697L812,648Z" fill="#3a3a3a" stroke="#3a3a3a" stroke-width="1.51"/><path d="M638,457L377,469L586,697Z" fill="#383838" stroke="#383838" stroke-width="1.51"/><path d="M638,457L613,230L377,469Z" fill="#353535" stroke="#353535" stroke-width="1.51"/><path d="M796,470L613,230L638,457Z" fill="#373737" stroke="#373737" stroke-width="1.51"/><path d="M586,697L836,899L812,648Z" fill="#3d3d3d" stroke="#3d3d3d" stroke-width="1.51"/><path d="M812,648L1071,454L796,470Z" fill="#3b3b3b" stroke="#3b3b3b" stroke-width="1.51"/><path d="M377,469L363,669L586,697Z" fill="#383838" stroke="#383838" stroke-width="1.51"/><path d="M586,697L587,923L836,899Z" fill="#3d3d3d" stroke="#3d3d3d" stroke-width="1.51"/><path d="M403,905L587,923L586,697Z" fill="#3c3c3c" stroke="#3c3c3c" stroke-width="1.51"/><path d="M796,470L858,194L613,230Z" fill="#363636" stroke="#363636" stroke-width="1.51"/><path d="M1074,705L1071,454L812,648Z" fill="#3d3d3d" stroke="#3d3d3d" stroke-width="1.51"/><path d="M836,899L1074,705L812,648Z" fill="#3e3e3e" stroke="#3e3e3e" stroke-width="1.51"/><path d="M1071,454L858,194L796,470Z" fill="#393939" stroke="#393939" stroke-width="1.51"/><path d="M363,669L403,905L586,697Z" fill="#3a3a3a" stroke="#3a3a3a" stroke-width="1.51"/><path d="M836,899L1064,876L1074,705Z" fill="#404040" stroke="#404040" stroke-width="1.51"/><path d="M1071,454L1044,205L858,194Z" fill="#383838" stroke="#383838" stroke-width="1.51"/><path d="M613,230L344,219L377,469Z" fill="#333333" stroke="#333333" stroke-width="1.51"/><path d="M377,469L170,467L363,669Z" fill="#363636" stroke="#363636" stroke-width="1.51"/><path d="M583,3L344,219L613,230Z" fill="#313131" stroke="#313131" stroke-width="1.51"/><path d="M344,219L170,467L377,469Z" fill="#333333" stroke="#333333" stroke-width="1.51"/><path d="M363,669L159,869L403,905Z" fill="#3a3a3a" stroke="#3a3a3a" stroke-width="1.51"/><path d="M863,-33L583,3L858,194Z" fill="#333333" stroke="#333333" stroke-width="1.51"/><path d="M858,194L583,3L613,230Z" fill="#333333" stroke="#333333" stroke-width="1.51"/><path d="M170,467L144,699L363,669Z" fill="#363636" stroke="#363636" stroke-width="1.51"/><path d="M836,899L1082,1152L1064,876Z" fill="#414141" stroke="#414141" stroke-width="1.51"/><path d="M587,923L818,1147L836,899Z" fill="#3f3f3f" stroke="#3f3f3f" stroke-width="1.51"/><path d="M628,1160L818,1147L587,923Z" fill="#3e3e3e" stroke="#3e3e3e" stroke-width="1.51"/><path d="M1318,669L1071,454L1074,705Z" fill="#3e3e3e" stroke="#3e3e3e" stroke-width="1.51"/><path d="M1318,669L1296,460L1071,454Z" fill="#3e3e3e" stroke="#3e3e3e" stroke-width="1.51"/><path d="M1071,454L1254,205L1044,205Z" fill="#393939" stroke="#393939" stroke-width="1.51"/><path d="M379,1149L628,1160L587,923Z" fill="#3d3d3d" stroke="#3d3d3d" stroke-width="1.51"/><path d="M379,1149L587,923L403,905Z" fill="#3c3c3c" stroke="#3c3c3c" stroke-width="1.51"/><path d="M1277,923L1074,705L1064,876Z" fill="#424242" stroke="#424242" stroke-width="1.51"/><path d="M1277,923L1318,669L1074,705Z" fill="#424242" stroke="#424242" stroke-width="1.51"/><path d="M1021,10L863,-33L858,194Z" fill="#343434" stroke="#343434" stroke-width="1.51"/><path d="M1021,10L858,194L1044,205Z" fill="#363636" stroke="#363636" stroke-width="1.51"/><path d="M144,699L159,869L363,669Z" fill="#383838" stroke="#383838" stroke-width="1.51"/><path d="M1254,205L1021,10L1044,205Z" fill="#373737" stroke="#373737" stroke-width="1.51"/><path d="M1296,460L1254,205L1071,454Z" fill="#3b3b3b" stroke="#3b3b3b" stroke-width="1.51"/><path d="M189,1144L379,1149L403,905Z" fill="#3b3b3b" stroke="#3b3b3b" stroke-width="1.51"/><path d="M170,467L-99,475L144,699Z" fill="#333333" stroke="#333333" stroke-width="1.51"/><path d="M344,219L150,200L170,467Z" fill="#313131" stroke="#313131" stroke-width="1.51"/><path d="M141,-8L150,200L344,219Z" fill="#2f2f2f" stroke="#2f2f2f" stroke-width="1.51"/><path d="M1082,1152L1277,923L1064,876Z" fill="#434343" stroke="#434343" stroke-width="1.51"/><path d="M583,3L400,-37L344,219Z" fill="#303030" stroke="#303030" stroke-width="1.51"/><path d="M577,-233L400,-37L583,3Z" fill="#303030" stroke="#303030" stroke-width="1.51"/><path d="M628,1160L1082,1152L818,1147Z" fill="#404040" stroke="#404040" stroke-width="1.51"/><path d="M818,1147L1082,1152L836,899Z" fill="#414141" stroke="#414141" stroke-width="1.51"/><path d="M159,869L189,1144L403,905Z" fill="#3b3b3b" stroke="#3b3b3b" stroke-width="1.51"/><path d="M379,1149L189,1144L628,1160Z" fill="#3c3c3c" stroke="#3c3c3c" stroke-width="1.51"/><path d="M863,-33L848,-201L583,3Z" fill="#323232" stroke="#323232" stroke-width="1.51"/><path d="M1047,-231L848,-201L863,-33Z" fill="#333333" stroke="#333333" stroke-width="1.51"/><path d="M1047,-231L863,-33L1021,10Z" fill="#343434" stroke="#343434" stroke-width="1.51"/><path d="M1296,460L1528,224L1254,205Z" fill="#3c3c3c" stroke="#3c3c3c" stroke-width="1.51"/><path d="M1318,669L1498,663L1296,460Z" fill="#414141" stroke="#414141" stroke-width="1.51"/><path d="M1495,899L1498,663L1318,669Z" fill="#434343" stroke="#434343" stroke-width="1.51"/><path d="M1277,923L1495,899L1318,669Z" fill="#444444" stroke="#444444" stroke-width="1.51"/><path d="M1082,1152L1311,1095L1277,923Z" fill="#444444" stroke="#444444" stroke-width="1.51"/><path d="M400,-37L141,-8L344,219Z" fill="#2e2e2e" stroke="#2e2e2e" stroke-width="1.51"/><path d="M-45,190L-99,475L170,467Z" fill="#303030" stroke="#303030" stroke-width="1.51"/><path d="M356,-202L141,-8L400,-37Z" fill="#2d2d2d" stroke="#2d2d2d" stroke-width="1.51"/><path d="M848,-201L577,-233L583,3Z" fill="#313131" stroke="#313131" stroke-width="1.51"/><path d="M-45,190L170,467L150,200Z" fill="#303030" stroke="#303030" stroke-width="1.51"/><path d="M144,699L-87,872L159,869Z" fill="#373737" stroke="#373737" stroke-width="1.51"/><path d="M159,869L-107,1128L189,1144Z" fill="#393939" stroke="#393939" stroke-width="1.51"/><path d="M1254,205L1306,8L1021,10Z" fill="#373737" stroke="#373737" stroke-width="1.51"/><path d="M1528,224L1306,8L1254,205Z" fill="#393939" stroke="#393939" stroke-width="1.51"/><path d="M1498,663L1525,460L1296,460Z" fill="#404040" stroke="#404040" stroke-width="1.51"/><path d="M-99,475L-107,712L144,699Z" fill="#343434" stroke="#343434" stroke-width="1.51"/><path d="M141,-8L-45,190L150,200Z" fill="#2d2d2d" stroke="#2d2d2d" stroke-width="1.51"/><path d="M577,-233L356,-202L400,-37Z" fill="#2f2f2f" stroke="#2f2f2f" stroke-width="1.51"/><path d="M-107,712L-87,872L144,699Z" fill="#363636" stroke="#363636" stroke-width="1.51"/><path d="M1311,1095L1495,899L1277,923Z" fill="#454545" stroke="#454545" stroke-width="1.51"/><path d="M1498,663L1758,698L1525,460Z" fill="#414141" stroke="#414141" stroke-width="1.51"/><path d="M848,-201L1047,-231L577,-233Z" fill="#323232" stroke="#323232" stroke-width="1.51"/><path d="M1306,8L1047,-231L1021,10Z" fill="#353535" stroke="#353535" stroke-width="1.51"/><path d="M1525,460L1528,224L1296,460Z" fill="#3e3e3e" stroke="#3e3e3e" stroke-width="1.51"/><path d="M577,-233L157,-228L356,-202Z" fill="#2e2e2e" stroke="#2e2e2e" stroke-width="1.51"/><path d="M356,-202L157,-228L141,-8Z" fill="#2d2d2d" stroke="#2d2d2d" stroke-width="1.51"/><path d="M141,-8L-102,-37L-45,190Z" fill="#2b2b2b" stroke="#2b2b2b" stroke-width="1.51"/><path d="M1492,-37L1306,-214L1306,8Z" fill="#383838" stroke="#383838" stroke-width="1.51"/><path d="M1306,8L1306,-214L1047,-231Z" fill="#363636" stroke="#363636" stroke-width="1.51"/><path d="M-322,926L-107,1128L-87,872Z" fill="#383838" stroke="#383838" stroke-width="1.51"/><path d="M-87,872L-107,1128L159,869Z" fill="#383838" stroke="#383838" stroke-width="1.51"/><path d="M1528,224L1492,-37L1306,8Z" fill="#393939" stroke="#393939" stroke-width="1.51"/><path d="M-281,218L-277,447L-99,475Z" fill="#303030" stroke="#303030" stroke-width="1.51"/><path d="M-99,475L-292,649L-107,712Z" fill="#343434" stroke="#343434" stroke-width="1.51"/><path d="M-107,712L-322,926L-87,872Z" fill="#373737" stroke="#373737" stroke-width="1.51"/><path d="M-281,218L-99,475L-45,190Z" fill="#2f2f2f" stroke="#2f2f2f" stroke-width="1.51"/><path d="M1311,1095L1545,1106L1495,899Z" fill="#464646" stroke="#464646" stroke-width="1.51"/><path d="M1495,899L1758,698L1498,663Z" fill="#434343" stroke="#434343" stroke-width="1.51"/><path d="M1525,460L1751,223L1528,224Z" fill="#3d3d3d" stroke="#3d3d3d" stroke-width="1.51"/><path d="M1082,1152L1545,1106L1311,1095Z" fill="#454545" stroke="#454545" stroke-width="1.51"/><path d="M-277,447L-292,649L-99,475Z" fill="#323232" stroke="#323232" stroke-width="1.51"/><path d="M-74,-204L-102,-37L141,-8Z" fill="#2b2b2b" stroke="#2b2b2b" stroke-width="1.51"/><path d="M-102,-37L-281,218L-45,190Z" fill="#2d2d2d" stroke="#2d2d2d" stroke-width="1.51"/><path d="M-277,447L-327,23L-292,649Z" fill="#303030" stroke="#303030" stroke-width="1.51"/><path d="M1762,901L1758,698L1495,899Z" fill="#454545" stroke="#454545" stroke-width="1.51"/><path d="M1528,224L1734,-27L1492,-37Z" fill="#393939" stroke="#393939" stroke-width="1.51"/><path d="M1758,698L1770,465L1525,460Z" fill="#404040" stroke="#404040" stroke-width="1.51"/><path d="M-292,649L-322,926L-107,712Z" fill="#363636" stroke="#363636" stroke-width="1.51"/><path d="M-327,23L-322,926L-292,649Z" fill="#333333" stroke="#333333" stroke-width="1.51"/><path d="M1770,465L1751,223L1525,460Z" fill="#3e3e3e" stroke="#3e3e3e" stroke-width="1.51"/><path d="M157,-228L-74,-204L141,-8Z" fill="#2b2b2b" stroke="#2b2b2b" stroke-width="1.51"/><path d="M-102,-37L-327,23L-281,218Z" fill="#2c2c2c" stroke="#2c2c2c" stroke-width="1.51"/><path d="M1545,1106L1762,901L1495,899Z" fill="#464646" stroke="#464646" stroke-width="1.51"/><path d="M1758,698L1762,901L1770,465Z" fill="#424242" stroke="#424242" stroke-width="1.51"/><path d="M1734,-27L1507,-238L1492,-37Z" fill="#383838" stroke="#383838" stroke-width="1.51"/><path d="M1492,-37L1507,-238L1306,-214Z" fill="#383838" stroke="#383838" stroke-width="1.51"/><path d="M1306,-214L1507,-238L1047,-231Z" fill="#373737" stroke="#373737" stroke-width="1.51"/><path d="M1047,-231L1507,-238L577,-233Z" fill="#343434" stroke="#343434" stroke-width="1.51"/><path d="M-322,926L-320,1112L-107,1128Z" fill="#383838" stroke="#383838" stroke-width="1.51"/><path d="M-281,218L-327,23L-277,447Z" fill="#2e2e2e" stroke="#2e2e2e" stroke-width="1.51"/><path d="M-317,-197L-327,23L-102,-37Z" fill="#2b2b2b" stroke="#2b2b2b" stroke-width="1.51"/><path d="M1545,1106L1749,1119L1762,901Z" fill="#464646" stroke="#464646" stroke-width="1.51"/><path d="M1082,1152L1749,1119L1545,1106Z" fill="#464646" stroke="#464646" stroke-width="1.51"/><path d="M1751,223L1734,-27L1528,224Z" fill="#3a3a3a" stroke="#3a3a3a" stroke-width="1.51"/><path d="M1765,-216L1734,-27L1751,223Z" fill="#383838" stroke="#383838" stroke-width="1.51"/><path d="M157,-228L-317,-197L-74,-204Z" fill="#2b2b2b" stroke="#2b2b2b" stroke-width="1.51"/><path d="M-74,-204L-317,-197L-102,-37Z" fill="#2b2b2b" stroke="#2b2b2b" stroke-width="1.51"/><path d="M1734,-27L1765,-216L1507,-238Z" fill="#383838" stroke="#383838" stroke-width="1.51"/><path d="M1770,465L1765,-216L1751,223Z" fill="#3b3b3b" stroke="#3b3b3b" stroke-width="1.51"/></svg>